HIERARCHY
ROOT SpineBase
{
  OFFSET 0.000000 0.000000 0.000000
  CHANNELS 6 Xposition Yposition Zposition Zrotation Xrotation Yrotation
  JOINT SpineMid
  {
    OFFSET 0.000000 18.271906 0.000000
    CHANNELS 3 Zrotation Xrotation Yrotation
    JOINT SpineShoulder
    {
      OFFSET -0.024332 14.093492 -0.117925
      CHANNELS 3 Zrotation Xrotation Yrotation
      JOINT Neck
      {
        OFFSET -0.105781 4.683368 -0.445850
        CHANNELS 3 Zrotation Xrotation Yrotation
        JOINT Head
        {
          OFFSET 3.182941 2.233324 -5.757408
          CHANNELS 3 Zrotation Xrotation Yrotation
          End Site
          {
            OFFSET 0 0 0
          }
        }
      }
      JOINT ShoulderLeft
      {
        OFFSET -6.870687 -2.581182 5.217222
        CHANNELS 3 Zrotation Xrotation Yrotation
        JOINT ElbowLeft
        {
          OFFSET -9.481544 -14.361236 -3.408371
          CHANNELS 3 Zrotation Xrotation Yrotation
          JOINT WristLeft
          {
            OFFSET 10.696021 -5.005421 -11.685883
            CHANNELS 3 Zrotation Xrotation Yrotation
            JOINT HandLeft
            {
              OFFSET 12.546722 -5.910215 -11.771800
              CHANNELS 3 Zrotation Xrotation Yrotation
              JOINT HandTipLeft
              {
                OFFSET 2.035869 -1.946112 -2.316727
                CHANNELS 3 Zrotation Xrotation Yrotation
                End Site
                {
                  OFFSET 0 0 0
                }
              }
              JOINT ThumbLeft
              {
                OFFSET -1.258219 1.380628 -2.583302
                CHANNELS 3 Zrotation Xrotation Yrotation
                End Site
                {
                  OFFSET 0 0 0
                }
              }
            }
          }
        }
      }
      JOINT ShoulderRight
      {
        OFFSET 5.137349 1.122547 -2.035408
        CHANNELS 3 Zrotation Xrotation Yrotation
        JOINT ElbowRight
        {
          OFFSET -3.511140 -10.959868 -13.497511
          CHANNELS 3 Zrotation Xrotation Yrotation
          JOINT WristRight
          {
            OFFSET 4.937660 -10.851974 -8.097278
            CHANNELS 3 Zrotation Xrotation Yrotation
            JOINT HandRight
            {
              OFFSET 3.964147 -9.442859 -17.593698
              CHANNELS 3 Zrotation Xrotation Yrotation
              JOINT HandTipRight
              {
                OFFSET 0.906235 -1.518745 -1.338483
                CHANNELS 3 Zrotation Xrotation Yrotation
                End Site
                {
                  OFFSET 0 0 0
                }
              }
              JOINT ThumbRight
              {
                OFFSET -0.038450 -1.644677 -0.803692
                CHANNELS 3 Zrotation Xrotation Yrotation
                End Site
                {
                  OFFSET 0 0 0
                }
              }
            }
          }
        }
      }
    }
  }
  JOINT HipLeft
  {
    OFFSET -3.826439 -0.114742 1.543018
    CHANNELS 3 Zrotation Xrotation Yrotation
    JOINT KneeLeft
    {
      OFFSET 17.730169 -5.471901 -16.761726
      CHANNELS 3 Zrotation Xrotation Yrotation
      JOINT AnkleLeft
      {
        OFFSET -8.248382 -13.214538 12.986471
        CHANNELS 3 Zrotation Xrotation Yrotation
        JOINT FootLeft
        {
          OFFSET -7.198148 -1.236039 -5.923073
          CHANNELS 3 Zrotation Xrotation Yrotation
          End Site
          {
            OFFSET 0 0 0
          }
        }
      }
    }
  }
  JOINT HipRight
  {
    OFFSET 1.764504 0.556602 -5.468821
    CHANNELS 3 Zrotation Xrotation Yrotation
    JOINT KneeRight
    {
      OFFSET 11.769910 -4.290025 -13.294174
      CHANNELS 3 Zrotation Xrotation Yrotation
      JOINT AnkleRight
      {
        OFFSET -3.187752 -14.964307 14.445585
        CHANNELS 3 Zrotation Xrotation Yrotation
        JOINT FootRight
        {
          OFFSET -5.500482 4.262543 -0.409650
          CHANNELS 3 Zrotation Xrotation Yrotation
          End Site
          {
            OFFSET 0 0 0
          }
        }
      }
    }
  }
}
MOTION
Frames: 10
Frame Time: 0.033333
201.702898 22.923813 435.521970 -3.728756 -10.975473 67.577243 -0.299288 0.586231 -67.928387 -0.740882 2.868692 -0.412051 14.463040 30.273569 -28.216218 0.000000 0.000000 0.000000 16.032176 27.236551 -18.551613 -23.601375 -45.847442 0.243844 11.088956 16.435711 6.427805 14.695804 8.749071 -8.066814 0.000000 0.000000 0.000000 0.000000 0.000000 0.000000 26.866795 -37.385085 -15.800379 -70.755462 53.305077 68.980970 4.397499 -7.384479 -9.560337 -3.931513 3.382791 11.030185 0.000000 0.000000 0.000000 0.000000 0.000000 0.000000 20.181346 1.710504 -52.649955 6.725572 -5.718110 -6.513765 -12.376426 -8.289903 32.730799 0.000000 0.000000 0.000000 37.603147 1.685645 -47.124251 -25.636527 -25.266757 -29.323909 45.829913 1.160625 -5.570453 0.000000 0.000000 0.000000
202.229978 22.842791 435.434726 -3.246404 -10.653890 69.541261 -0.601070 0.237721 -69.866015 -0.829964 3.470819 -0.330898 12.900553 29.051867 -28.258346 0.000000 0.000000 0.000000 14.450581 27.208308 -18.203524 -22.265331 -45.771927 1.278763 11.240745 15.371448 3.480919 13.448701 6.002193 -9.136075 0.000000 0.000000 0.000000 0.000000 0.000000 0.000000 26.126629 -36.815800 -15.755327 -67.956272 51.987051 66.393068 7.211980 -8.562925 -12.631725 -7.165137 0.287914 13.050867 0.000000 0.000000 0.000000 0.000000 0.000000 0.000000 18.292883 1.952755 -54.271656 5.050966 -7.659807 -7.244133 -11.435821 -3.403233 26.866992 0.000000 0.000000 0.000000 43.117794 1.320626 -45.623688 -32.227895 -28.124810 -35.246778 45.020110 -0.895337 -7.346291 0.000000 0.000000 0.000000
202.239370 22.713358 435.222603 -3.275228 -10.657291 71.522433 -0.862003 -0.894673 -71.962776 -0.331151 3.787856 -0.286966 14.588180 32.387441 -32.284384 0.000000 0.000000 0.000000 11.784919 27.316391 -17.410267 -20.835513 -44.529556 3.219907 12.940189 15.836221 0.982322 14.401444 10.888159 -5.392366 0.000000 0.000000 0.000000 0.000000 0.000000 0.000000 24.580546 -35.104581 -17.191324 -68.523825 51.701437 67.072667 5.799319 -12.119392 -13.294178 -5.286331 3.038125 12.763151 0.000000 0.000000 0.000000 0.000000 0.000000 0.000000 15.531206 1.927557 -57.774701 6.365898 -6.677021 -5.595803 -12.333912 -0.515660 23.631982 0.000000 0.000000 0.000000 48.621087 0.941119 -43.461670 -38.147428 -29.805297 -41.322822 43.203755 -3.608490 -9.016140 0.000000 0.000000 0.000000
201.632575 22.778477 434.963122 -4.277383 -10.491358 72.109126 -0.743211 -1.519223 -72.713111 -0.521034 4.429339 -0.262073 14.651694 31.219171 -30.818369 0.000000 0.000000 0.000000 10.585848 26.021242 -15.846868 -18.947659 -42.531180 3.610587 14.276712 17.305317 1.534851 15.413840 13.008444 -4.968060 0.000000 0.000000 0.000000 0.000000 0.000000 0.000000 24.388477 -31.407821 -17.676210 -55.283185 47.560675 53.969987 5.414352 -5.223621 -10.503725 -4.443820 15.192827 16.877124 0.000000 0.000000 0.000000 0.000000 0.000000 0.000000 13.525437 1.154429 -60.193976 7.684217 -5.601815 -3.434819 -12.999302 0.950990 23.477193 0.000000 0.000000 0.000000 53.223015 0.778271 -40.295497 -42.746790 -30.664889 -46.117994 39.943888 -7.834497 -11.609132 0.000000 0.000000 0.000000
200.584033 22.938349 434.557408 -5.562836 -9.072749 72.845147 -0.131989 -1.667912 -73.491900 -0.796754 4.787577 -0.245588 11.608985 24.153739 -23.385116 0.000000 0.000000 0.000000 10.939121 23.078805 -14.594408 -18.462852 -41.187947 4.712268 17.375003 19.359648 -0.067497 15.633104 17.115967 -2.364620 0.000000 0.000000 0.000000 0.000000 0.000000 0.000000 25.221456 -26.077964 -18.911268 -45.204535 42.087234 44.937657 3.432523 -7.066547 -10.359101 -8.175558 17.260859 20.261988 0.000000 0.000000 0.000000 0.000000 0.000000 0.000000 12.382101 -0.878116 -61.934790 7.610695 -5.559997 -2.060669 -12.492491 0.326757 27.406871 0.000000 0.000000 0.000000 55.268596 -0.605379 -38.274474 -44.747200 -31.158150 -47.677654 40.178463 -5.820125 -9.016839 0.000000 0.000000 0.000000
199.380719 23.112082 434.046216 -7.358814 -7.991123 72.675054 -0.602684 -1.812659 -73.443130 -0.831973 5.312089 -0.275556 12.864875 22.155537 -21.183239 0.000000 0.000000 0.000000 12.479177 21.092198 -13.586879 -17.235633 -38.160356 7.499232 23.510965 22.398070 -3.919812 10.467239 16.418915 0.864513 0.000000 0.000000 0.000000 0.000000 0.000000 0.000000 26.229501 -18.126877 -20.377465 -33.945377 33.146290 35.282983 1.295093 -4.429625 -7.948609 -10.180453 20.449049 22.883903 0.000000 0.000000 0.000000 0.000000 0.000000 0.000000 12.461587 -3.436865 -62.753628 6.774603 -5.926905 -0.824650 -13.772188 1.897327 25.261783 0.000000 0.000000 0.000000 61.118428 -0.278055 -33.393611 -51.114702 -31.923743 -53.306000 38.352645 -6.790559 -8.740939 0.000000 0.000000 0.000000
198.116749 23.297239 433.535634 -9.323972 -7.216387 71.928972 -1.277326 -2.440553 -72.904581 -0.460685 5.811890 -0.307096 16.195888 24.193492 -21.866137 0.000000 0.000000 0.000000 13.833464 21.270556 -13.935076 -15.557038 -36.576057 11.382267 30.383272 23.967775 -9.417090 2.629096 15.491347 5.982676 0.000000 0.000000 0.000000 0.000000 0.000000 0.000000 26.728554 -10.025843 -21.763656 -25.839482 29.003411 29.635680 -5.466233 -14.975606 -7.204110 0.791081 28.267565 14.982153 0.000000 0.000000 0.000000 0.000000 0.000000 0.000000 14.124230 -6.357200 -62.465094 4.974160 -6.809063 -0.208180 -14.800919 3.235196 22.190979 0.000000 0.000000 0.000000 67.053028 1.117403 -28.368118 -57.257915 -32.202574 -58.632205 36.587332 -7.896610 -8.453427 0.000000 0.000000 0.000000
196.919650 23.485023 433.093418 -11.240418 -6.826111 70.118188 -1.714022 -2.876660 -71.306759 -0.322866 6.118892 -0.345862 20.135148 26.859313 -23.498223 0.000000 0.000000 0.000000 15.379713 21.370108 -13.923632 -14.470182 -34.761916 14.717225 44.012942 23.128479 -23.702669 -12.203156 10.553141 14.866932 0.000000 0.000000 0.000000 0.000000 0.000000 0.000000 27.375460 -4.318424 -21.873592 -19.984829 24.107661 25.700941 -6.340139 -12.211799 -5.540636 1.784302 21.322499 11.911013 0.000000 0.000000 0.000000 0.000000 0.000000 0.000000 16.292253 -8.868237 -61.481922 1.889035 -8.148738 -0.132378 -14.142663 5.091079 18.594354 0.000000 0.000000 0.000000 72.056725 3.881917 -23.771638 -62.125232 -32.074390 -62.892742 34.942575 -9.456798 -8.585563 0.000000 0.000000 0.000000
196.141542 23.668783 432.780019 -12.791933 -6.547325 68.087680 -1.855652 -2.800378 -69.393082 0.028059 6.635454 -0.357466 23.253508 28.221741 -24.559571 0.000000 0.000000 0.000000 16.749482 21.026673 -13.879302 -13.694366 -33.816087 16.075654 57.189004 17.369716 -40.099664 -27.441649 1.695305 24.317498 0.000000 0.000000 0.000000 0.000000 0.000000 0.000000 27.405136 -2.037398 -20.293462 -16.263218 19.713982 22.719264 -0.750090 -6.640154 -9.548248 1.302577 11.471042 11.064454 0.000000 0.000000 0.000000 0.000000 0.000000 0.000000 19.071503 -10.805513 -59.622713 -2.002434 -10.093619 -1.107705 -12.605481 7.048155 14.728128 0.000000 0.000000 0.000000 74.686866 7.425076 -19.672994 -64.876903 -31.576433 -66.274864 33.323995 -11.054561 -9.264147 0.000000 0.000000 0.000000
195.871725 23.872451 432.448999 -13.119303 -6.722697 65.513138 -1.234970 -3.013699 -66.828625 0.083774 5.278972 -0.512738 28.406599 33.996924 -33.040201 0.000000 0.000000 0.000000 16.458093 21.974435 -13.810447 -13.175815 -33.070905 16.056889 59.789504 8.054756 -52.270197 -36.834228 -2.946605 36.590172 0.000000 0.000000 0.000000 0.000000 0.000000 0.000000 26.103991 -3.543199 -18.211704 -16.162817 16.552667 20.762210 6.168909 -0.675374 -14.273773 -2.544405 7.565318 14.851596 0.000000 0.000000 0.000000 0.000000 0.000000 0.000000 22.210979 -10.851221 -56.517381 -3.081138 -10.577066 -1.265929 -15.116069 7.056725 15.049906 0.000000 0.000000 0.000000 73.608361 11.774814 -16.517717 -64.346408 -30.809915 -68.405601 32.710675 -12.172130 -10.335875 0.000000 0.000000 0.000000
